<svg id="Layer_1" data-name="Layer 1" xmlns="http://www.w3.org/2000/svg" viewBox="0 0 80.73 53.86"><defs><style>.cls-1,.cls-4{fill:none;}.cls-1,.cls-2,.cls-4{stroke:#de4f4f;stroke-miterlimit:10;}.cls-1{stroke-width:2px;}.cls-2,.cls-3{fill:#de4f4f;}.cls-4{stroke-width:3px;}</style></defs><title>benefit1</title><g id="_Group_" data-name="&lt;Group&gt;"><path id="_Path_" data-name="&lt;Path&gt;" class="cls-1" d="M22.33,5.6S6,12.5,3.5,25.67A167.07,167.07,0,0,0,1,52.76H79.73a167.07,167.07,0,0,0-2.5-27.09C74.73,12.5,58.4,5.6,58.4,5.6"/><path id="_Compound_Path_" data-name="&lt;Compound Path&gt;" class="cls-2" d="M31,25.18l-9.42-19,2.24-5.41,17.29,12Zm-8.36-19,8.56,17.27L39.7,13,24.24,2.24Z"/><path id="_Compound_Path_2" data-name="&lt;Compound Path&gt;" class="cls-2" d="M49.81,25.18L39.7,12.8,57,0.77l2.24,5.41ZM41.1,13l8.51,10.41L58.17,6.14l-1.61-3.9Z"/><path id="_Compound_Path_3" data-name="&lt;Compound Path&gt;" class="cls-2" d="M43.59,20.28H38.37l-2-3.19,4.05-5,4,4.87Zm-4.69-1h3.93l0.5-2.07L40.4,13.66l-2.86,3.51Z"/><path id="_Compound_Path_4" data-name="&lt;Compound Path&gt;" class="cls-2" d="M33.15,53.79l5.06-34.47h5.41l5.15,33.44m-1,0-5-32.48H39L34.16,53.54"/><path id="_Compound_Path_5" data-name="&lt;Compound Path&gt;" class="cls-2" d="M49.78,50.45L46.9,48.16,43.15,22.73,51.83,44.5Zm-2-2.81,1.52,1.21,1.49-4.32-5.5-13.8Z"/><path id="_Path_2" data-name="&lt;Path&gt;" class="cls-2" d="M15,42.52L9.14,36.67a8.56,8.56,0,0,1,12.1-12.1l5.85,5.85L23.3,34.21l-0.68-.68,3.11-3.11-5.17-5.17A7.59,7.59,0,0,0,9.82,36L15,41.16l3.11-3.11,0.68,0.68Z"/><path id="_Path_3" data-name="&lt;Path&gt;" class="cls-3" d="M22.51,38.42L22,37.58a2.26,2.26,0,0,0,1.23-1.83,2.1,2.1,0,0,0-3.88-1.1l-0.82-.51a3.06,3.06,0,0,1,5.66,1.61A3.2,3.2,0,0,1,22.51,38.42Z"/><path id="_Compound_Path_6" data-name="&lt;Compound Path&gt;" class="cls-3" d="M20.24,39.65a3.06,3.06,0,1,1,3.06-3.06A3.06,3.06,0,0,1,20.24,39.65Zm0-5.15a2.1,2.1,0,1,0,2.1,2.1A2.1,2.1,0,0,0,20.24,34.49Z"/><path id="_Path_4" data-name="&lt;Path&gt;" class="cls-2" d="M9.79,24.37a16.67,16.67,0,0,1-.23-2.79A16.49,16.49,0,0,1,22,5.6L22.2,6.53A15.53,15.53,0,0,0,10.52,21.59a15.71,15.71,0,0,0,.22,2.62Z"/><rect id="_Path_5" data-name="&lt;Path&gt;" class="cls-2" x="24.01" y="0.83" width="32.78" height="0.96"/><rect id="_Path_6" data-name="&lt;Path&gt;" class="cls-2" x="28.5" y="4.13" width="23.8" height="0.96"/><line id="_Path_7" data-name="&lt;Path&gt;" class="cls-4" x1="62.47" y1="25.18" x2="62.47" y2="36.55"/><line id="_Path_8" data-name="&lt;Path&gt;" class="cls-4" x1="68.16" y1="30.86" x2="56.78" y2="30.86"/></g></svg>