<svg xmlns="http://www.w3.org/2000/svg" width="58" height="76" viewBox="0 0 58 76">
  <defs>
    <style>
      .cls-1 {
        fill: #de4f4f;
        fill-rule: evenodd;
      }
    </style>
  </defs>
  <path id="Shape_56_copy" data-name="Shape 56 copy" class="cls-1" d="M1195,3251.99a47.746,47.746,0,0,1-29-37.68v-24.96l29-13.36,29,13.36v24.96A47.746,47.746,0,0,1,1195,3251.99Zm24.61-59.24L1195,3181.42l-24.61,11.33v21.3a40.527,40.527,0,0,0,24.61,31.97,40.527,40.527,0,0,0,24.61-31.97v-21.3ZM1195,3238a30.2,30.2,0,0,1-18-23.81v-15.76l18-8.43,18,8.43v15.76A30.2,30.2,0,0,1,1195,3238Zm13.99-36.34-13.99-6.67-13.99,6.67v12.53A23.865,23.865,0,0,0,1195,3233a23.865,23.865,0,0,0,13.99-18.81v-12.53Z" transform="translate(-1166 -3176)"/>
</svg>
