<svg id="Layer_1" data-name="Layer 1" xmlns="http://www.w3.org/2000/svg" viewBox="0 0 71.27 56.78"><defs><style>.cls-1{fill:#de4f4f;stroke:#de4f4f;stroke-miterlimit:10;}</style></defs><title>benefit7</title><path id="_Compound_Path_" data-name="&lt;Compound Path&gt;" class="cls-1" d="M65.84,56.28H5.43A4.94,4.94,0,0,1,.5,51.35V5.43A4.94,4.94,0,0,1,5.43.5H65.84a4.94,4.94,0,0,1,4.93,4.93V51.35A4.94,4.94,0,0,1,65.84,56.28ZM5.43,1.73a3.7,3.7,0,0,0-3.7,3.7V51.35a3.7,3.7,0,0,0,3.7,3.7H65.84a3.7,3.7,0,0,0,3.7-3.7V5.43a3.7,3.7,0,0,0-3.7-3.7H5.43Z"/><rect id="_Path_" data-name="&lt;Path&gt;" class="cls-1" x="1.12" y="11.29" width="64.11" height="1.23"/><path id="_Compound_Path_2" data-name="&lt;Compound Path&gt;" class="cls-1" d="M8.83,9.28a2,2,0,1,1,2-2A2,2,0,0,1,8.83,9.28Zm0-2.72a0.74,0.74,0,1,0,.74.74A0.74,0.74,0,0,0,8.83,6.57Z"/><path id="_Compound_Path_3" data-name="&lt;Compound Path&gt;" class="cls-1" d="M15.76,9.28a2,2,0,1,1,2-2A2,2,0,0,1,15.76,9.28Zm0-2.72a0.74,0.74,0,1,0,.74.74A0.74,0.74,0,0,0,15.76,6.57Z"/><path id="_Compound_Path_4" data-name="&lt;Compound Path&gt;" class="cls-1" d="M22.38,9.28a2,2,0,1,1,2-2A2,2,0,0,1,22.38,9.28Zm0-2.72a0.74,0.74,0,1,0,.74.74A0.74,0.74,0,0,0,22.38,6.57Z"/><path id="_Compound_Path_5" data-name="&lt;Compound Path&gt;" class="cls-1" d="M13.15,24.15H6.82a1.23,1.23,0,0,1-1.23-1.23V19.07a1.23,1.23,0,0,1,1.23-1.23h6.33a1.23,1.23,0,0,1,1.23,1.23v3.85A1.23,1.23,0,0,1,13.15,24.15ZM6.82,19.07v3.85h6.33V19.07H6.82Z"/><path id="_Compound_Path_6" data-name="&lt;Compound Path&gt;" class="cls-1" d="M23.9,24.15H17.57a1.23,1.23,0,0,1-1.23-1.23V19.07a1.23,1.23,0,0,1,1.23-1.23H23.9a1.23,1.23,0,0,1,1.23,1.23v3.85A1.23,1.23,0,0,1,23.9,24.15Zm-6.33-5.09v3.85H23.9V19.07H17.57Z"/><path id="_Compound_Path_7" data-name="&lt;Compound Path&gt;" class="cls-1" d="M34.55,24.15H28.22A1.23,1.23,0,0,1,27,22.92V19.07a1.23,1.23,0,0,1,1.23-1.23h6.33a1.23,1.23,0,0,1,1.23,1.23v3.85A1.23,1.23,0,0,1,34.55,24.15Zm-6.33-5.09v3.85h6.33V19.07H28.22Z"/><path id="_Compound_Path_8" data-name="&lt;Compound Path&gt;" class="cls-1" d="M45.58,24.15H39.25A1.23,1.23,0,0,1,38,22.92V19.07a1.23,1.23,0,0,1,1.23-1.23h6.33a1.23,1.23,0,0,1,1.23,1.23v3.85A1.23,1.23,0,0,1,45.58,24.15Zm-6.33-5.09v3.85h6.33V19.07H39.25Z"/><path id="_Compound_Path_9" data-name="&lt;Compound Path&gt;" class="cls-1" d="M56.44,24.15H50.11a1.23,1.23,0,0,1-1.23-1.23V19.07a1.23,1.23,0,0,1,1.23-1.23h6.33a1.23,1.23,0,0,1,1.23,1.23v3.85A1.23,1.23,0,0,1,56.44,24.15Zm-6.33-5.09v3.85h6.33V19.07H50.11Z"/><path id="_Compound_Path_10" data-name="&lt;Compound Path&gt;" class="cls-1" d="M13.15,33.78H6.82a1.23,1.23,0,0,1-1.23-1.23V28.7a1.23,1.23,0,0,1,1.23-1.23h6.33a1.23,1.23,0,0,1,1.23,1.23v3.85A1.23,1.23,0,0,1,13.15,33.78ZM6.82,28.7v3.85h6.33V28.7H6.82Z"/><path id="_Compound_Path_11" data-name="&lt;Compound Path&gt;" class="cls-1" d="M23.9,33.78H17.57a1.23,1.23,0,0,1-1.23-1.23V28.7a1.23,1.23,0,0,1,1.23-1.23H23.9a1.23,1.23,0,0,1,1.23,1.23v3.85A1.23,1.23,0,0,1,23.9,33.78ZM17.57,28.7v3.85H23.9V28.7H17.57Z"/><path id="_Compound_Path_12" data-name="&lt;Compound Path&gt;" class="cls-1" d="M34.55,33.78H28.22A1.23,1.23,0,0,1,27,32.55V28.7a1.23,1.23,0,0,1,1.23-1.23h6.33a1.23,1.23,0,0,1,1.23,1.23v3.85A1.23,1.23,0,0,1,34.55,33.78ZM28.22,28.7v3.85h6.33V28.7H28.22Z"/><path id="_Compound_Path_13" data-name="&lt;Compound Path&gt;" class="cls-1" d="M45.58,33.78H39.25A1.23,1.23,0,0,1,38,32.55V28.7a1.23,1.23,0,0,1,1.23-1.23h6.33a1.23,1.23,0,0,1,1.23,1.23v3.85A1.23,1.23,0,0,1,45.58,33.78ZM39.25,28.7v3.85h6.33V28.7H39.25Z"/><path id="_Compound_Path_14" data-name="&lt;Compound Path&gt;" class="cls-1" d="M56.44,33.78H50.11a1.23,1.23,0,0,1-1.23-1.23V28.7a1.23,1.23,0,0,1,1.23-1.23h6.33a1.23,1.23,0,0,1,1.23,1.23v3.85A1.23,1.23,0,0,1,56.44,33.78ZM50.11,28.7v3.85h6.33V28.7H50.11Z"/><path id="_Compound_Path_15" data-name="&lt;Compound Path&gt;" class="cls-1" d="M13.15,43.57H6.82a1.23,1.23,0,0,1-1.23-1.23V38.48a1.23,1.23,0,0,1,1.23-1.23h6.33a1.23,1.23,0,0,1,1.23,1.23v3.85A1.23,1.23,0,0,1,13.15,43.57ZM6.82,38.48v3.85h6.33V38.48H6.82Z"/><path id="_Compound_Path_16" data-name="&lt;Compound Path&gt;" class="cls-1" d="M23.9,43.57H17.57a1.23,1.23,0,0,1-1.23-1.23V38.48a1.23,1.23,0,0,1,1.23-1.23H23.9a1.23,1.23,0,0,1,1.23,1.23v3.85A1.23,1.23,0,0,1,23.9,43.57Zm-6.33-5.09v3.85H23.9V38.48H17.57Z"/></svg>