<svg id="Layer_1" data-name="Layer 1" xmlns="http://www.w3.org/2000/svg" viewBox="0 0 50.68 83.26"><defs><style>.cls-1{fill:#de4f4f;stroke:#de4f4f;stroke-miterlimit:10;}</style></defs><title>benefit4</title><g id="_Group_" data-name="&lt;Group&gt;"><path id="_Compound_Path_" data-name="&lt;Compound Path&gt;" class="cls-1" d="M9.7,82.76H0.5V45.45H9.7V82.76ZM2.37,80.89H7.84V47.31H2.37V80.89Z"/><path id="_Compound_Path_2" data-name="&lt;Compound Path&gt;" class="cls-1" d="M38.09,82.76A5.76,5.76,0,0,1,32.34,77V44.43H41.8V79.06A3.71,3.71,0,0,1,38.09,82.76ZM34.26,46.34V77a3.84,3.84,0,0,0,3.83,3.83,1.79,1.79,0,0,0,1.79-1.79V46.34H34.26Z"/><path id="_Compound_Path_3" data-name="&lt;Compound Path&gt;" class="cls-1" d="M14.41,46.31H0.5V0.53H1.43a13,13,0,0,1,13,13v32.8Zm-12-1.87H12.55V13.51A11.13,11.13,0,0,0,2.37,2.43v42Z"/><path id="_Compound_Path_4" data-name="&lt;Compound Path&gt;" class="cls-1" d="M37.07,36C29.84,36,24,28,24,18.23S29.84,0.5,37.07.5s13.11,8,13.11,17.73S44.3,36,37.07,36Zm0-33.54c-6.17,0-11.2,7.09-11.2,15.81S30.9,34,37.07,34s11.2-7.09,11.2-15.81S43.24,2.42,37.07,2.42Z"/><rect id="_Path_" data-name="&lt;Path&gt;" class="cls-1" x="36.11" y="35" width="1.92" height="10.38"/></g></svg>